<svg fill='white' xmlns="http://www.w3.org/2000/svg" version="1.1" viewBox="0 0 32 40" x="0px" y="0px"><title>play-button</title><path d="M16 0.6c-8.501 0-15.4 6.9-15.4 15.4s6.906 15.4 15.4 15.4c8.501 0 15.4-6.906 15.4-15.4 0-8.501-6.9-15.4-15.4-15.4zM16 1.641c7.911 0 14.359 6.449 14.359 14.359s-6.449 14.359-14.359 14.359c-7.911 0-14.359-6.449-14.359-14.359s6.449-14.359 14.359-14.359zM12.486 8.113c-0.093-0.003-0.186 0.019-0.27 0.064-0.164 0.090-0.268 0.266-0.268 0.453v14.732c0 0.197 0.099 0.359 0.268 0.451 0 0 0 0.002 0 0.002 0.083 0.044 0.168 0.064 0.25 0.064 0.096 0 0.192-0.027 0.291-0.088 0 0 0.002 0 0.002 0l11.473-7.354c0 0 0.002-0.002 0.002-0.002 0.151-0.1 0.236-0.263 0.238-0.432-0.006-0.183-0.098-0.352-0.234-0.439v-0.002l-11.49-7.369c-0.080-0.051-0.169-0.079-0.262-0.082zM12.982 9.584l10.002 6.416-10.002 6.416v-12.832z"/><text x="0" y="47" fill="#000000" font-size="5px" font-weight="bold" font-family="'Helvetica Neue', Helvetica, Arial-Unicode, Arial, Sans-serif">Created by vectlab</text><text x="0" y="52" fill="#000000" font-size="5px" font-weight="bold" font-family="'Helvetica Neue', Helvetica, Arial-Unicode, Arial, Sans-serif">from the Noun Project</text></svg>